<svg width="84" height="95" viewBox="0 0 84 95" fill="none" xmlns="http://www.w3.org/2000/svg">
<path d="M6.37861 33.5492C-2.95794 78.0806 52.8525 81.7173 52.8525 81.7173M52.8525 81.7173C53.0457 79.5482 50.3207 73.4029 46.5061 71.0118M52.8525 81.7173C50.6554 83.7753 48.3235 85.4626 41.4155 86.7148" stroke="white"/>
<path d="M13.6161 25.1224C13.3773 25.1541 13.1992 25.1483 13.0818 25.1048C12.9635 25.0548 12.8958 24.9653 12.8786 24.8363L11.4969 14.4492L8.18624 14.8896C8.06363 14.9059 7.97092 14.8756 7.90813 14.7985C7.84535 14.7215 7.80236 14.5959 7.77919 14.4216L7.74184 14.1409C7.71781 13.9602 7.72645 13.8277 7.76778 13.7434C7.80825 13.6526 7.88979 13.5991 8.01241 13.5828L16.0858 12.5089C16.2084 12.4926 16.3012 12.5229 16.3639 12.5999C16.4259 12.6705 16.4689 12.7962 16.4929 12.9769L16.5302 13.2576C16.5534 13.4318 16.5448 13.5643 16.5043 13.6551C16.4638 13.7459 16.3823 13.7994 16.2597 13.8157L13.0167 14.2471L14.3984 24.6341C14.4319 24.8858 14.2163 25.0425 13.7516 25.1043L13.6161 25.1224ZM20.6537 24.1862C20.1955 24.2472 19.9497 24.1518 19.9162 23.9001L18.2912 11.6835C18.2577 11.4318 18.4701 11.2755 18.9283 11.2146L18.996 11.2056C19.4607 11.1437 19.7098 11.2387 19.7432 11.4904L20.3613 16.1369C20.6514 15.7503 21.0077 15.4172 21.4303 15.1377C21.852 14.8517 22.3178 14.6748 22.8276 14.607C23.5504 14.5108 24.2131 14.6296 24.8157 14.9632C25.4248 15.2959 25.7985 15.9818 25.9367 17.0208L26.7312 22.9936C26.7647 23.2453 26.5523 23.4016 26.0941 23.4626L26.0263 23.4716C25.5617 23.5334 25.3126 23.4385 25.2791 23.1868L24.504 17.3592C24.4344 16.8365 24.2315 16.4464 23.8951 16.189C23.5588 15.9316 23.1034 15.8412 22.529 15.9176C22.1483 15.9682 21.8086 16.1053 21.5099 16.329C21.2178 16.5517 20.9793 16.7838 20.7947 17.0251C20.6157 17.259 20.5278 17.3889 20.5313 17.4148L21.3683 23.707C21.4017 23.9587 21.1861 24.1154 20.7215 24.1772L20.6537 24.1862ZM31.9113 22.7578C31.0336 22.8745 30.295 22.7527 29.6954 22.3925C29.0958 22.0322 28.7393 21.4261 28.626 20.5742C28.5067 19.6772 28.6912 18.9663 29.1797 18.4416C29.6673 17.9104 30.2962 17.5279 31.0663 17.2941C31.8421 17.053 32.7934 16.8477 33.9202 16.6781L33.812 15.8649C33.7545 15.4325 33.5601 15.107 33.2289 14.8884C32.9033 14.6624 32.405 14.594 31.7338 14.6833C31.2239 14.7511 30.7836 14.8721 30.4127 15.0462C30.0474 15.213 29.7081 15.4027 29.3948 15.6151C29.2623 15.705 29.1799 15.7521 29.1476 15.7563C29.0702 15.7667 28.9757 15.7234 28.8643 15.6265C28.7585 15.5224 28.6607 15.4041 28.5708 15.2715C28.4874 15.1381 28.4414 15.0392 28.4328 14.9746C28.4131 14.8262 28.5433 14.6447 28.8234 14.4301C29.11 14.2146 29.494 14.0158 29.9755 13.8335C30.457 13.6513 30.9688 13.5241 31.5109 13.452C32.5886 13.3086 33.4557 13.433 34.1121 13.8251C34.7685 14.2173 35.1533 14.8393 35.2667 15.6911L35.7804 19.5536C35.88 20.3022 35.9844 20.84 36.0936 21.167C36.2083 21.4867 36.2679 21.6627 36.2721 21.695C36.291 21.8369 36.1951 21.9548 35.9842 22.0485C35.779 22.1349 35.5828 22.1906 35.3956 22.2155C35.2407 22.2361 35.113 22.1644 35.0124 22.0005C34.9182 21.8356 34.8137 21.5934 34.699 21.2737L34.6345 21.0853C34.3319 21.5261 33.9541 21.8949 33.5009 22.1916C33.0543 22.4875 32.5244 22.6762 31.9113 22.7578ZM31.8227 21.4987C32.3906 21.4231 32.8609 21.2555 33.2335 20.9958C33.6062 20.736 33.9801 20.3875 34.3554 19.95L34.085 17.9172C33.234 18.0369 32.5385 18.1656 31.9985 18.3031C31.4586 18.4406 30.9997 18.6691 30.6218 18.9886C30.2431 19.3017 30.0903 19.7325 30.1632 20.2811C30.2242 20.7393 30.3936 21.0747 30.6715 21.2873C30.9549 21.4926 31.3386 21.5631 31.8227 21.4987ZM41.582 21.4714C41.0076 21.5478 40.4714 21.4418 39.9733 21.1534C39.4752 20.865 39.1673 20.2787 39.0497 19.3946L38.3196 13.9058L37.4581 14.0204C37.3355 14.0367 37.2399 14.01 37.1716 13.9403C37.1088 13.8633 37.0654 13.7344 37.0413 13.5537L37.013 13.3407C36.989 13.16 36.9976 13.0275 37.0389 12.9432C37.0859 12.8516 37.1706 12.7976 37.2932 12.7813L38.1548 12.6667L38.1186 10.8391C38.098 10.5857 38.2652 10.4354 38.6201 10.3882L38.7847 10.3663C38.9654 10.3423 39.102 10.3569 39.1945 10.4103C39.2861 10.4572 39.3405 10.5452 39.3577 10.6743L39.5972 12.4749L41.0395 12.283C41.1622 12.2667 41.2549 12.297 41.3177 12.3741C41.386 12.4438 41.4323 12.569 41.4563 12.7497L41.4846 12.9627C41.5087 13.1434 41.4972 13.2795 41.4503 13.3712C41.409 13.4555 41.327 13.5058 41.2044 13.5221L39.762 13.7139L40.4741 19.0672C40.5367 19.5383 40.6612 19.8567 40.8474 20.0224C41.0401 20.1872 41.2784 20.2508 41.5624 20.213C41.7818 20.1838 41.9479 20.1486 42.0606 20.1073C42.1798 20.0652 42.2588 20.0415 42.2975 20.0364C42.4007 20.0227 42.4984 20.1148 42.5904 20.3127C42.6888 20.5098 42.7462 20.6696 42.7625 20.7922C42.808 21.1343 42.4145 21.3606 41.582 21.4714ZM43.2506 11.8707C43.1215 11.8878 43.0028 11.8839 42.8944 11.8589C42.7924 11.8331 42.735 11.7718 42.7221 11.675C42.711 11.5911 42.7409 11.4459 42.8119 11.2394C42.9541 10.8264 43.0456 10.4038 43.0866 9.97141C43.1268 9.5326 43.1125 9.05505 43.0438 8.53877C43.0215 8.37097 43.0616 8.22772 43.164 8.10901C43.2729 7.98945 43.4402 7.91464 43.6661 7.8846L43.8113 7.86528C44.0307 7.83609 44.2078 7.85852 44.3424 7.93256C44.477 8.0066 44.5542 8.11784 44.574 8.26627C44.659 8.90517 44.6325 9.4965 44.4947 10.0403C44.356 10.5776 44.164 11.0103 43.9187 11.3385C43.6798 11.6658 43.4571 11.8432 43.2506 11.8707ZM50.4292 20.3635C49.9452 20.4279 49.4853 20.4267 49.0495 20.3599C48.6137 20.293 48.2583 20.1893 47.9835 20.0485C47.7142 19.9004 47.5706 19.7586 47.5525 19.6231C47.5439 19.5585 47.5625 19.451 47.6081 19.3004C47.6602 19.149 47.7242 19.0124 47.7999 18.8907C47.8813 18.7617 47.9607 18.692 48.0381 18.6817C48.0575 18.6791 48.1198 18.7037 48.2252 18.7553C48.5057 18.8888 48.7956 18.9947 49.095 19.0731C49.4009 19.1506 49.7539 19.1628 50.154 19.1096C51.2769 18.9602 51.7766 18.4208 51.653 17.4915C51.6178 17.2269 51.5333 17.0116 51.3996 16.8455C51.2723 16.6785 51.0738 16.544 50.804 16.442C50.5399 16.3326 50.1831 16.2421 49.7335 16.1706C49.0899 16.0723 48.5785 15.9302 48.1991 15.7442C47.8261 15.5574 47.5481 15.3185 47.3649 15.0276C47.1808 14.7303 47.0592 14.359 47 13.9137C46.9364 13.4361 46.9987 12.9911 47.1869 12.5785C47.3815 12.1652 47.6808 11.8232 48.0848 11.5527C48.4954 11.2814 48.9749 11.1092 49.5235 11.0363C49.9042 10.9856 50.2736 10.9726 50.6315 10.9973C50.9959 11.021 51.2923 11.0768 51.5207 11.1647C51.7547 11.2452 51.8799 11.3468 51.8962 11.4694C51.9082 11.5597 51.8923 11.6866 51.8483 11.8501C51.81 12.0063 51.7534 12.1484 51.6785 12.2766C51.6027 12.3984 51.5293 12.4639 51.4584 12.4734C51.4454 12.4751 51.3596 12.4471 51.2009 12.3894C51.0413 12.3253 50.841 12.2764 50.6001 12.2427C50.3648 12.2018 50.1084 12.1998 49.8309 12.2367C49.3921 12.2951 49.0407 12.4436 48.7769 12.6823C48.5187 12.9137 48.4115 13.1939 48.4553 13.523C48.5068 13.9103 48.6513 14.2063 48.8887 14.4112C49.1261 14.616 49.4935 14.7609 49.9908 14.8458C50.7565 14.9738 51.348 15.125 51.7653 15.2994C52.1826 15.4737 52.4937 15.7148 52.6989 16.0224C52.9096 16.3228 53.0501 16.7376 53.1205 17.2668C53.1875 17.7701 53.1129 18.2464 52.8968 18.6955C52.6798 19.1381 52.3549 19.5097 51.922 19.8103C51.4883 20.1044 50.9906 20.2888 50.4292 20.3635ZM67.7057 8.63741C68.4221 8.54213 69.0784 8.66172 69.6745 8.99618C70.2707 9.33065 70.6379 10.0174 70.7761 11.0564L71.5706 17.0292C71.5878 17.1583 71.5458 17.2624 71.4447 17.3415C71.3427 17.4142 71.1723 17.4664 70.9335 17.4982L70.8754 17.5059C70.6302 17.5385 70.4489 17.5331 70.3314 17.4896C70.2131 17.4396 70.1454 17.3501 70.1282 17.2211L69.3531 11.3935C69.2835 10.8707 69.087 10.4798 68.7636 10.2207C68.4466 9.96079 68.0171 9.86687 67.475 9.93898C67.0232 9.99907 66.631 10.1859 66.2983 10.4994C65.9713 10.8056 65.7137 11.1157 65.5256 11.4297C65.5591 11.5829 65.581 11.6982 65.5913 11.7756L66.3819 17.7194C66.4154 17.9711 66.1998 18.1278 65.7352 18.1896L65.6674 18.1986C65.2092 18.2596 64.9634 18.1642 64.9299 17.9125L64.1547 12.085C64.0852 11.5622 63.8887 11.1713 63.5652 10.9122C63.2482 10.6523 62.8187 10.5583 62.2766 10.6304C61.9023 10.6802 61.5723 10.8161 61.2865 11.038C60.9999 11.2534 60.7671 11.4782 60.5881 11.7121C60.4155 11.9453 60.3309 12.0747 60.3343 12.1006L61.1739 18.4121C61.1911 18.5412 61.1491 18.6453 61.048 18.7244C60.9524 18.7963 60.7853 18.8481 60.5465 18.8798L60.469 18.8901C60.2303 18.9219 60.0522 18.916 59.9347 18.8725C59.8229 18.8217 59.7584 18.7318 59.7412 18.6027L58.9377 12.5622C58.8381 11.8136 58.731 11.2794 58.6162 10.9597C58.5006 10.6336 58.4406 10.4544 58.4363 10.4221C58.4174 10.2801 58.5106 10.1659 58.7158 10.0795C58.9267 9.9858 59.1257 9.92649 59.3128 9.90159C59.4742 9.88013 59.6051 9.95137 59.7058 10.1153C59.8064 10.2793 59.8848 10.4494 59.9412 10.6258C60.0039 10.8014 60.0452 10.9141 60.065 10.964C60.3322 10.5541 60.6787 10.1961 61.1043 9.88989C61.5299 9.5837 61.9976 9.3967 62.5074 9.32889C63.0301 9.25935 63.5315 9.30102 64.0116 9.4539C64.4908 9.60033 64.8721 9.92397 65.1555 10.4248C65.4546 9.95814 65.8254 9.56073 66.2678 9.23261C66.7101 8.90449 67.1895 8.70609 67.7057 8.63741ZM78.0963 16.6143C76.6701 16.8041 75.5591 16.5742 74.7634 15.9247C73.9733 15.268 73.4761 14.1716 73.2718 12.6357C73.0692 11.1126 73.2543 9.91238 73.8272 9.0349C74.3993 8.15098 75.3435 7.62145 76.6601 7.44633C77.8346 7.2901 78.7694 7.55325 79.4644 8.2358C80.1659 8.91749 80.6145 9.99404 80.8102 11.4655C80.8188 11.53 80.7953 11.6251 80.7398 11.7507C80.6899 11.869 80.6225 11.9797 80.5377 12.0829C80.4585 12.1789 80.3867 12.2311 80.3221 12.2397L74.8914 12.9621C75.0903 13.9142 75.4291 14.585 75.9079 14.9745C76.3922 15.3567 77.0603 15.4912 77.9121 15.3778C78.3897 15.3143 78.7918 15.2017 79.1184 15.0401C79.4514 14.8775 79.7681 14.6909 80.0685 14.4802C80.099 14.463 80.1444 14.434 80.2047 14.3931C80.2649 14.3523 80.3079 14.3301 80.3337 14.3267C80.4047 14.3173 80.4931 14.3646 80.5989 14.4688C80.7103 14.5656 80.8077 14.6807 80.8912 14.8141C80.9802 14.9402 81.029 15.0355 81.0376 15.1C81.0564 15.242 80.9355 15.419 80.6747 15.631C80.4139 15.843 80.0529 16.0421 79.5917 16.2283C79.1369 16.4135 78.6384 16.5422 78.0963 16.6143ZM79.199 11.1281C78.9586 9.32109 78.1511 8.50901 76.7765 8.69186C75.2986 8.88844 74.6153 9.89882 74.7266 11.723L79.199 11.1281Z" fill="white"/>
</svg>
