<svg width="16" height="11" viewBox="0 0 16 11" fill="none" xmlns="http://www.w3.org/2000/svg">
<path d="M6.39941 0V1.66667H3.19971V3.33333H1.59985V5H0.359967C0.204981 5 0.0774931 5.11198 0.0499954 5.27083C0.0474958 5.28255 0 5.5612 0 5.91667C0 6.14974 0.0212481 6.40365 0.0599945 6.65625C0.426211 6.5651 1.0974 6.42839 0.97991 5.97917C1.6111 6.74089 3.12596 6.51042 3.50968 6.13542C3.93839 6.78255 6.43566 6.53516 6.60939 6.03125C7.14684 6.6875 8.81294 6.6875 9.34914 6.03125C9.52288 6.53516 12.0101 6.78255 12.4389 6.13542C12.5751 6.26823 12.8588 6.37891 13.1888 6.4375C13.3 6.21745 13.4025 5.99609 13.4988 5.76042C15.5311 5.73438 15.9698 4.21224 15.9885 4.14583C16.0235 4.01823 15.976 3.88672 15.8785 3.80208C15.8448 3.77214 15.0949 3.13802 13.8787 3.35417C13.5375 2.19661 12.6588 1.66927 12.6188 1.64583C12.5039 1.57812 12.3614 1.58854 12.2589 1.67708C12.2264 1.70443 11.4702 2.3724 11.5889 3.73958C11.6189 4.08333 11.7052 4.38672 11.8389 4.65625C11.5764 4.80859 11.1252 5 10.399 5H10.2391V3.33333H8.63921V0H6.39941ZM13.1888 6.4375C13.15 6.51562 13.1 6.59115 13.0588 6.66667H15.9485C15.6011 6.57552 14.8549 6.45312 14.9786 5.97917C14.5699 6.47135 13.7937 6.54427 13.1888 6.4375ZM13.0588 6.66667H0.0599945C0.137488 7.15625 0.297473 7.66927 0.53995 8.16667C2.27729 8.59245 4.10087 7.94401 4.11962 7.9375C4.28711 7.8763 4.46209 7.97266 4.51959 8.14583C4.57833 8.31901 4.49584 8.51302 4.3296 8.57292C4.26836 8.59505 3.16971 8.97917 1.81983 8.97917C1.55236 8.97917 1.27113 8.96354 0.989909 8.92708C1.82983 10.0872 3.25345 11 5.4395 11C8.89668 11 11.5552 9.47005 13.0588 6.66667ZM0.0599945 6.66667C0.0587447 6.66146 0.0612443 6.66146 0.0599945 6.65625C0.0387465 6.66146 0.0187483 6.66146 0 6.66667H0.0599945ZM7.03935 0.666667H7.99927V1.66667H7.03935V0.666667ZM3.83965 2.33333H4.79956V3.33333H3.83965V2.33333ZM5.4395 2.33333H6.39941V3.33333H5.4395V2.33333ZM7.03935 2.33333H7.99927V3.33333H7.03935V2.33333ZM2.23979 4H3.19971V5H2.23979V4ZM3.83965 4H4.79956V5H3.83965V4ZM5.4395 4H6.39941V5H5.4395V4ZM7.03935 4H7.99927V5H7.03935V4ZM8.63921 4H9.59912V5H8.63921V4ZM5.11953 7.33333C5.16078 7.33333 5.20327 7.33984 5.23952 7.35417C5.20077 7.3776 5.16953 7.41797 5.16953 7.46875C5.16953 7.54427 5.22702 7.61458 5.29951 7.61458C5.34826 7.61458 5.39701 7.58333 5.4195 7.54167C5.43575 7.58073 5.4395 7.62109 5.4395 7.66667C5.4395 7.85026 5.29576 8 5.11953 8C4.9433 8 4.79956 7.85026 4.79956 7.66667C4.79956 7.48307 4.9433 7.33333 5.11953 7.33333Z" fill="white"/>
</svg>
