<svg width="18" height="18" viewBox="0 0 18 18" fill="none" xmlns="http://www.w3.org/2000/svg">
<path d="M17.5277 7.86124L10.1388 0.472316C9.82541 0.157439 9.4127 0 9 0C8.5873 0 8.17459 0.157439 7.86124 0.472316L6.39997 1.93359L8.20822 3.74185C8.80893 3.38876 9.59154 3.46518 10.1067 3.9803C10.6218 4.49541 10.6967 5.27802 10.3436 5.87721L12.1213 7.65489C12.722 7.3018 13.5046 7.37823 14.0197 7.89334C14.6311 8.50476 14.6311 9.49524 14.0197 10.1067C13.4083 10.7181 12.4178 10.7181 11.8064 10.1067C11.2913 9.59154 11.2148 8.80893 11.5679 8.20822L9.79025 6.43054C9.66338 6.50543 9.5304 6.56046 9.3913 6.59562V11.4029C10.0654 11.5771 10.5652 12.1839 10.5652 12.913C10.5652 13.7782 9.86515 14.4783 9 14.4783C8.13485 14.4783 7.43478 13.7782 7.43478 12.913C7.43478 12.1839 7.93461 11.5771 8.6087 11.4029V6.59562C8.34732 6.52836 8.09817 6.39844 7.89334 6.19361C7.37823 5.6785 7.30333 4.89589 7.65642 4.29671L5.84664 2.48692L0.472317 7.86124C-0.157439 8.48947 -0.157439 9.51053 0.472317 10.1388L7.86124 17.5277C8.17459 17.8426 8.5873 18 9 18C9.4127 18 9.82541 17.8426 10.1388 17.5277L17.5277 10.1388C18.1574 9.51053 18.1574 8.48947 17.5277 7.86124Z" fill="white"/>
</svg>
