<svg width="33" height="32" viewBox="0 0 33 32" fill="none" xmlns="http://www.w3.org/2000/svg">
<path d="M16.2463 0C7.47407 0 0.362305 7.16369 0.362305 16C0.362305 23.5551 5.56249 29.8831 12.5533 31.5606C12.1916 31.4738 11.833 31.3766 11.4811 31.2658V27.6C11.4811 27.6 10.8855 27.8 10.0913 27.8C7.86934 27.8 6.94624 25.8031 6.71592 24.8C6.57602 24.1889 6.21068 23.6098 5.81847 23.256C5.34989 22.8351 5.13057 22.8338 5.12751 22.6898C5.12141 22.3877 5.5295 22.4 5.72317 22.4C6.71592 22.4 7.46858 23.464 7.81803 24.0142C8.68371 25.3723 9.61292 25.6 10.0913 25.6C10.6869 25.6 11.2013 25.5102 11.5557 25.3378C11.7194 24.176 12.2326 23.1409 13.0695 22.4C9.34472 21.6498 6.71592 19.4978 6.71592 16C6.71592 14.1982 7.43375 12.5422 8.62994 11.2049C8.50776 10.856 8.30432 10.1502 8.30432 9C8.30432 8.24 8.35686 7.30708 8.70142 6.4C8.70142 6.4 10.9667 6.416 13.1031 8.45415C14.0892 8.16492 15.1442 8 16.2463 8C17.3484 8 18.4035 8.16492 19.3895 8.45415C21.5259 6.416 23.7913 6.4 23.7913 6.4C24.1376 7.30708 24.1884 8.24 24.1884 9C24.1884 10.24 24.0246 10.9631 23.9244 11.2751C25.084 12.6 25.7768 14.2302 25.7768 16C25.7768 19.4978 23.148 21.6498 19.4231 22.4C20.4177 23.28 21.0115 24.5618 21.0115 26V31.2658C20.6597 31.3772 20.3017 31.4738 19.9394 31.5606C26.9302 29.8831 32.1304 23.5551 32.1304 16C32.1304 7.16369 25.0186 0 16.2463 0ZM17.3539 31.9569C16.988 31.9828 16.619 32 16.2463 32C16.619 32 16.9874 31.9822 17.3539 31.9569ZM19.7811 31.5975C19.07 31.7606 18.3412 31.8751 17.5971 31.9385C18.3412 31.8751 19.07 31.76 19.7811 31.5975ZM16.2463 32C15.8737 32 15.5047 31.9828 15.1387 31.9569C15.5053 31.9822 15.8737 32 16.2463 32ZM14.895 31.9385C14.1515 31.8751 13.422 31.7606 12.7115 31.5975C13.4226 31.76 14.1515 31.8751 14.895 31.9385Z" fill="#5F5E62"/>
</svg>
