<svg width="17" height="17" viewBox="0 0 17 17" fill="none" xmlns="http://www.w3.org/2000/svg">
<path fill-rule="evenodd" clip-rule="evenodd" d="M8.5 1.17352L14.8449 4.83676V12.1632L8.5 15.8265L2.15509 12.1632V4.83676L8.5 1.17352ZM2.867 5.24778V10.6293L7.52751 2.55704L2.867 5.24778ZM8.5 2.29646L3.12757 11.6018H13.8724L8.5 2.29646ZM13.1605 12.3137H3.83948L8.5 15.0044L13.1605 12.3137ZM14.133 10.6293L9.47248 2.55704L14.133 5.24778V10.6293Z" fill="white"/>
<path d="M8.5 3.08395C9.3281 3.08395 9.99941 2.41264 9.99941 1.58454C9.99941 0.756449 9.3281 0.085144 8.5 0.085144C7.67191 0.085144 7.0006 0.756449 7.0006 1.58454C7.0006 2.41264 7.67191 3.08395 8.5 3.08395Z" fill="white"/>
<path d="M14.489 6.54171C15.3171 6.54171 15.9884 5.8704 15.9884 5.04231C15.9884 4.21421 15.3171 3.54291 14.489 3.54291C13.6609 3.54291 12.9896 4.21421 12.9896 5.04231C12.9896 5.8704 13.6609 6.54171 14.489 6.54171Z" fill="white"/>
<path d="M14.489 13.4571C15.3171 13.4571 15.9884 12.7858 15.9884 11.9577C15.9884 11.1296 15.3171 10.4583 14.489 10.4583C13.6609 10.4583 12.9896 11.1296 12.9896 11.9577C12.9896 12.7858 13.6609 13.4571 14.489 13.4571Z" fill="white"/>
<path d="M8.5 16.9149C9.3281 16.9149 9.99941 16.2436 9.99941 15.4155C9.99941 14.5874 9.3281 13.9161 8.5 13.9161C7.67191 13.9161 7.0006 14.5874 7.0006 15.4155C7.0006 16.2436 7.67191 16.9149 8.5 16.9149Z" fill="white"/>
<path d="M2.5102 13.4571C3.3383 13.4571 4.0096 12.7858 4.0096 11.9577C4.0096 11.1296 3.3383 10.4583 2.5102 10.4583C1.68211 10.4583 1.0108 11.1296 1.0108 11.9577C1.0108 12.7858 1.68211 13.4571 2.5102 13.4571Z" fill="white"/>
<path d="M2.5102 6.54171C3.3383 6.54171 4.0096 5.8704 4.0096 5.04231C4.0096 4.21421 3.3383 3.54291 2.5102 3.54291C1.68211 3.54291 1.0108 4.21421 1.0108 5.04231C1.0108 5.8704 1.68211 6.54171 2.5102 6.54171Z" fill="white"/>
</svg>
