<svg width="18" height="18" viewBox="0 0 18 18" fill="none" xmlns="http://www.w3.org/2000/svg">
<path d="M8.99971 8.92084e-08C8.7933 7.45319e-05 8.58711 0.0468696 8.39668 0.14068L2.29234 3.14448C1.91262 3.33123 1.63651 3.68495 1.5428 4.10409L0.0344507 10.8575C-0.0587595 11.2757 0.0394693 11.7154 0.301265 12.0513L4.5271 17.4664C4.79013 17.8036 5.19051 18 5.61287 18H12.3865C12.8089 18 13.2093 17.8036 13.4723 17.4664L17.6981 12.0521V12.0513C17.9599 11.7157 18.0588 11.2765 17.9657 10.8583C17.9657 10.8581 17.9657 10.8578 17.9657 10.8575L16.4566 4.10409C16.4566 4.10383 16.4566 4.10357 16.4566 4.1033C16.3629 3.68483 16.087 3.3316 15.7071 3.14448L9.60351 0.14068C9.60325 0.140418 9.60299 0.140156 9.60274 0.139894C9.41229 0.0464922 9.20611 -7.43937e-05 8.99971 8.92084e-08ZM8.99971 0.804785C9.0884 0.804814 9.17689 0.824887 9.25958 0.865302L15.3639 3.8691C15.5281 3.94997 15.6465 4.1014 15.687 4.2825L17.1954 11.0359C17.2357 11.2171 17.1935 11.406 17.0805 11.5507L12.8546 16.9657C12.741 17.1114 12.5691 17.1952 12.3865 17.1952H5.61287C5.43036 17.1952 5.25919 17.1114 5.14556 16.9657L0.919718 11.5507C0.806431 11.4054 0.763807 11.2165 0.804047 11.0359L2.31316 4.28328C2.35369 4.10205 2.47194 3.95033 2.6355 3.86989C2.6355 3.86962 2.6355 3.86936 2.6355 3.8691L8.73983 0.865302C8.8221 0.824773 8.91101 0.804757 8.99971 0.804785ZM8.99662 2.49766C8.94091 2.49779 8.88434 2.50911 8.83006 2.53224C8.6129 2.62882 8.51013 2.88622 8.60488 3.10754C8.69569 3.32483 8.72694 3.54178 8.75063 3.75907C8.75852 3.87174 8.76306 3.98051 8.75911 4.08916C8.77096 4.1978 8.71546 4.30667 8.6365 4.41532C8.55359 4.52396 8.54578 4.63283 8.53394 4.74147C7.45046 4.84986 6.47506 5.33378 5.72931 6.06104L5.72237 6.05711C5.63156 5.99675 5.54516 5.93617 5.40697 5.93215C5.27668 5.9241 5.15811 5.90024 5.08309 5.81976C5.00018 5.75538 4.91752 5.68323 4.8425 5.60678C4.68852 5.45387 4.54194 5.28867 4.43534 5.07942C4.38401 4.97882 4.28919 4.89794 4.17469 4.86172C3.9457 4.79734 3.70896 4.93013 3.64184 5.16352C3.57472 5.39288 3.70896 5.63828 3.93795 5.70266C4.15905 5.77107 4.34471 5.88374 4.52633 6.00445C4.61319 6.06481 4.69635 6.12929 4.77927 6.20172C4.87007 6.26208 4.91724 6.37475 4.95277 6.50351C4.97883 6.63249 5.05145 6.70711 5.12242 6.77937C4.58199 7.56375 4.26183 8.51697 4.26183 9.54582C4.26183 9.71602 4.2711 9.88389 4.28805 10.0496C4.19948 10.0812 4.11181 10.1155 4.03666 10.206C3.9498 10.3066 3.85486 10.3866 3.74825 10.3946C3.6456 10.4228 3.53946 10.4431 3.43286 10.4551C3.21965 10.4833 3.00244 10.4995 2.77739 10.4512C2.66684 10.4311 2.54451 10.455 2.4458 10.5274C2.25234 10.6643 2.209 10.9378 2.34324 11.135C2.48143 11.3321 2.74972 11.3811 2.94318 11.2403C3.1327 11.1035 3.33397 11.0265 3.53927 10.9581C3.64193 10.9259 3.74498 10.8981 3.85159 10.878C3.95424 10.8417 4.06849 10.8736 4.19089 10.9259C4.29259 10.9794 4.38263 10.9751 4.47158 10.966C4.81912 12.1143 5.57902 13.0764 6.57139 13.6837C6.53749 13.7804 6.50568 13.8812 6.53592 14.0083C6.55961 14.1411 6.56343 14.2663 6.50816 14.3588C6.46473 14.4594 6.41759 14.5554 6.36627 14.652C6.25572 14.8371 6.13746 15.0223 5.96373 15.1833C5.88082 15.2597 5.82502 15.3682 5.82107 15.4929C5.81318 15.7343 5.99905 15.936 6.23595 15.944C6.47284 15.9521 6.67454 15.7626 6.68243 15.5212C6.68638 15.2838 6.7494 15.075 6.82047 14.8657C6.856 14.7651 6.89956 14.6644 6.94694 14.5679C6.98247 14.4633 7.07689 14.3863 7.19139 14.3219C7.30544 14.2619 7.35674 14.1771 7.40808 14.0877C7.90644 14.2697 8.44075 14.3745 8.99971 14.3745C9.5682 14.3745 10.1112 14.2663 10.6168 14.0782C10.6703 14.1713 10.7252 14.2597 10.8396 14.3219C10.9541 14.3903 11.0486 14.4633 11.0841 14.5679C11.1315 14.6685 11.1712 14.7691 11.2067 14.8697C11.2778 15.0789 11.3368 15.2877 11.3447 15.5251C11.3447 15.6418 11.392 15.755 11.4828 15.8395C11.6604 16.0005 11.9293 15.9883 12.0912 15.8112C12.2491 15.6301 12.2372 15.3561 12.0634 15.1911C11.8897 15.0342 11.7714 14.845 11.6648 14.6559C11.6134 14.5633 11.5663 14.4633 11.5229 14.3667C11.4676 14.2701 11.4713 14.1489 11.499 14.0162C11.5306 13.8793 11.4951 13.7789 11.4635 13.6743L11.4604 13.6641C12.4449 13.0507 13.1948 12.0857 13.5348 10.9377L13.5479 10.9385C13.6584 10.9465 13.7649 10.9582 13.8833 10.8898C14.0018 10.8334 14.1207 10.801 14.2234 10.8332C14.3261 10.8493 14.4323 10.8734 14.5349 10.9015C14.7402 10.9619 14.946 11.0344 15.1395 11.1672C15.2343 11.2275 15.3527 11.2559 15.4711 11.2277C15.704 11.1754 15.8502 10.9424 15.7988 10.709C15.7475 10.4716 15.5182 10.3227 15.2853 10.375C15.0563 10.4273 14.8431 10.4187 14.6259 10.3986C14.5193 10.3865 14.4164 10.3708 14.3098 10.3467C14.2032 10.3386 14.1091 10.2664 14.0183 10.1698C13.9275 10.0612 13.8248 10.0331 13.7222 10.0009L13.7152 9.99852C13.7289 9.84926 13.7376 9.69866 13.7376 9.54582C13.7376 8.54818 13.4387 7.61984 12.9279 6.84932C13.0028 6.769 13.0784 6.69274 13.106 6.55617C13.1416 6.42741 13.1887 6.31474 13.2795 6.25438C13.3585 6.18195 13.4456 6.11756 13.5325 6.05318C13.7101 5.93246 13.8959 5.81577 14.117 5.75139C14.2275 5.71919 14.3216 5.64243 14.3769 5.52976C14.4874 5.31649 14.405 5.05132 14.1918 4.94267C13.9825 4.83 13.7216 4.914 13.615 5.13129C13.5084 5.34054 13.3625 5.50574 13.2124 5.65865C13.1335 5.7351 13.0548 5.80794 12.9718 5.87635C12.8968 5.95683 12.7783 5.98069 12.648 5.98873C12.5098 5.99276 12.4226 6.05727 12.3318 6.11763C11.5789 5.35745 10.578 4.85277 9.46547 4.74147C9.45363 4.63283 9.44582 4.52396 9.36291 4.41532C9.28395 4.30667 9.22846 4.1978 9.2403 4.08916C9.23635 3.98051 9.24089 3.87174 9.24878 3.75907C9.27247 3.54178 9.30372 3.32483 9.39453 3.10754C9.43796 3.00292 9.44191 2.87843 9.39453 2.76173C9.32346 2.59575 9.16374 2.49729 8.99662 2.49766ZM8.43061 5.56827L8.41133 5.72309C8.35605 6.15768 8.31663 6.59628 8.27715 7.03087C8.25346 7.26023 8.23356 7.4939 8.21777 7.72327C8.02431 7.58243 7.83084 7.43323 7.62554 7.30044C7.2702 7.05498 6.91467 6.80921 6.54749 6.57582L6.42333 6.49723C6.97864 6.00957 7.66878 5.68005 8.43061 5.56827ZM9.56881 5.56827C10.3618 5.68463 11.076 6.03857 11.6424 6.55932L11.5105 6.6442C11.1473 6.88161 10.7963 7.12729 10.441 7.37275C10.2988 7.46932 10.1603 7.57001 10.0261 7.67061C9.91949 7.74707 9.77334 7.67844 9.76545 7.54565C9.7536 7.37262 9.73806 7.2039 9.72226 7.03087C9.68278 6.59628 9.64336 6.15768 9.58808 5.72309L9.56881 5.56827ZM5.6761 7.37589L5.8018 7.5095C6.10186 7.82739 6.40609 8.13333 6.71405 8.44317C6.84434 8.57596 6.97463 8.70118 7.10887 8.82592C7.20363 8.91444 7.16804 9.07106 7.04564 9.10728C6.85218 9.16764 6.65844 9.22366 6.46497 9.28804C6.05831 9.42485 5.64784 9.55412 5.24118 9.70301L5.06227 9.76667C5.05836 9.69304 5.05148 9.62047 5.05148 9.54582C5.05148 8.74494 5.28249 8.00193 5.6761 7.37589ZM12.3704 7.45527C12.7343 8.06469 12.9479 8.77822 12.9479 9.54582C12.9479 9.61304 12.9411 9.67827 12.9379 9.74466L12.7976 9.69908C12.3869 9.56226 11.9768 9.44491 11.5622 9.32419C11.2937 9.24371 11.0248 9.17176 10.7564 9.10335C10.9577 8.90618 11.1675 8.71274 11.3609 8.51155C11.6649 8.20171 11.9686 7.89193 12.2647 7.57001L12.3704 7.45527ZM8.75525 8.74104H9.23645C9.31146 8.74104 9.38281 8.77744 9.42229 8.83378L9.72997 9.22831C9.7734 9.28062 9.78963 9.35638 9.77778 9.42479L9.66674 9.91206C9.6549 9.98852 9.60345 10.0488 9.54027 10.085L9.09841 10.294C9.03524 10.3302 8.95646 10.3302 8.89329 10.294L8.45065 10.085C8.38748 10.0488 8.33208 9.98852 8.32419 9.91206L8.21392 9.42479C8.20207 9.35638 8.2183 9.28062 8.26173 9.22831L8.56941 8.83378C8.60889 8.77744 8.68024 8.74104 8.75525 8.74104ZM7.32942 10.6603C7.45182 10.6401 7.55108 10.7652 7.5037 10.8819C7.42868 11.0831 7.35721 11.2804 7.29009 11.4816C7.14401 11.896 7.00175 12.3064 6.86751 12.7249L6.81353 12.8978C6.11082 12.4216 5.57111 11.7209 5.28359 10.896L5.49334 10.878C5.9237 10.8377 6.34616 10.7849 6.77651 10.7326C6.96208 10.7124 7.14385 10.6844 7.32942 10.6603ZM10.7409 10.7168C10.9265 10.737 11.1083 10.7573 11.2938 10.7734C11.7242 10.8137 12.1505 10.8537 12.5809 10.8819L12.7181 10.8898C12.4358 11.7041 11.9079 12.3982 11.2198 12.875L11.1751 12.7288C11.0448 12.3103 10.903 11.8959 10.7648 11.4855C10.7017 11.3004 10.6384 11.1196 10.5713 10.9385C10.5279 10.8218 10.6225 10.7008 10.7409 10.7168ZM9.02901 11.5106C9.08527 11.5106 9.14163 11.5395 9.17321 11.5979C9.26007 11.7669 9.35144 11.9319 9.44619 12.0969C9.6594 12.4752 9.87189 12.8577 10.1009 13.2279L10.1942 13.3819C9.81748 13.5031 9.41643 13.5697 8.99971 13.5697C8.59553 13.5697 8.20595 13.5072 7.83914 13.3929L7.93785 13.2318C8.16685 12.8616 8.38387 12.483 8.60103 12.1048C8.69973 11.9398 8.79477 11.7709 8.88558 11.5979C8.91716 11.5395 8.97275 11.5106 9.02901 11.5106Z" fill="white"/>
</svg>
