<svg width="26" height="26" viewBox="0 0 26 26" fill="none" xmlns="http://www.w3.org/2000/svg">
<path d="M23.6364 0H2.36364C1.05773 0 0 1.05773 0 2.36364V23.6364C0 24.9423 1.05773 26 2.36364 26H23.6364C24.9423 26 26 24.9423 26 23.6364V2.36364C26 1.05773 24.9423 0 23.6364 0ZM8.21836 21.2727H4.732V10.0549H8.21836V21.2727ZM6.43973 8.45118C5.31582 8.45118 4.407 7.54 4.407 6.41845C4.407 5.29691 5.317 4.38691 6.43973 4.38691C7.56009 4.38691 8.47127 5.29809 8.47127 6.41845C8.47127 7.54 7.56009 8.45118 6.43973 8.45118ZM21.2775 21.2727H17.7935V15.8175C17.7935 14.5163 17.7698 12.8428 15.9817 12.8428C14.1676 12.8428 13.8887 14.2598 13.8887 15.7229V21.2727H10.4047V10.0549H13.7493V11.5877H13.7965C14.2622 10.7061 15.3991 9.776 17.095 9.776C20.6251 9.776 21.2775 12.0995 21.2775 15.1202V21.2727V21.2727Z" fill="#5F5E62"/>
</svg>
