<svg width="12" height="20" viewBox="0 0 12 20" fill="none" xmlns="http://www.w3.org/2000/svg">
<path d="M4.93476 16.657C0.772578 9.66314 0 8.94535 0 6.375C0 2.85417 2.46242 0 5.5 0C8.53758 0 11 2.85417 11 6.375C11 8.94535 10.2274 9.66314 6.06524 16.657C5.7921 17.1143 5.20787 17.1143 4.93476 16.657ZM5.5 9.03125C6.76566 9.03125 7.79167 7.84201 7.79167 6.375C7.79167 4.90799 6.76566 3.71875 5.5 3.71875C4.23434 3.71875 3.20833 4.90799 3.20833 6.375C3.20833 7.84201 4.23434 9.03125 5.5 9.03125Z" fill="white"/>
</svg>
