<svg width="16" height="18" viewBox="0 0 16 18" fill="none" xmlns="http://www.w3.org/2000/svg">
<path d="M8 0C7.64917 0 7.29898 0.0891523 6.98698 0.267377L0.986979 3.68778C0.377646 4.0339 0 4.67443 0 5.35762V12.8921C0 13.6011 0.399 14.2525 1.04167 14.5922L3.00781 15.6314C3.31048 15.7916 3.63815 15.8686 3.96615 15.8686C4.31815 15.8686 4.66571 15.7769 4.98438 15.5961C5.59771 15.2436 5.96354 14.621 5.96354 13.9288V5.73599H4.63021V13.9288C4.63021 14.2607 4.40335 14.4282 4.30469 14.4837C4.20735 14.5393 3.94583 14.6552 3.64583 14.4964L1.68229 13.4596C1.46762 13.346 1.33333 13.1284 1.33333 12.8921V5.35762C1.33333 5.13032 1.45879 4.9164 1.66146 4.80017L7.66146 1.37976C7.86946 1.26095 8.13054 1.26224 8.33854 1.37976L14.3385 4.80017C14.5399 4.9164 14.6667 5.13032 14.6667 5.35762V12.8971C14.6667 13.1296 14.5336 13.3485 14.3203 13.4647L8.32031 16.6303C8.12031 16.7336 7.87969 16.7336 7.67969 16.6303L6.50781 16.0098C6.28115 16.281 6 16.5148 5.66667 16.7085C5.56 16.7731 5.45302 16.8236 5.34635 16.8624L7.03906 17.7654C7.34573 17.9204 7.66667 18 8 18C8.33333 18 8.65427 17.9204 8.96094 17.7654L14.9609 14.5897C15.6009 14.2539 16 13.6075 16 12.8971V5.35762C16 4.67443 15.6236 4.0339 15.0156 3.68778L9.01562 0.267377C8.70296 0.0891525 8.35083 0 8 0ZM9.9349 5.5468C7.82823 5.5468 6.76042 6.25805 6.76042 7.66059C6.76042 9.24911 8.64929 9.48545 9.55729 9.59781C9.68796 9.6146 9.80383 9.62895 9.89583 9.64574L10.2943 9.71384C11.6809 9.93856 12 10.0909 12 10.5235C12 10.7328 11.9989 11.366 9.9349 11.366C8.18423 11.366 7.82552 10.8629 7.82552 10.1073H6.49219C6.49219 11.2723 7.08956 12.6575 9.9349 12.6575C12.7429 12.6575 13.3333 11.4973 13.3333 10.5235C13.3333 8.89886 11.7036 8.63251 10.5156 8.4375L10.1328 8.37444C10.0221 8.35507 9.88256 8.33703 9.72656 8.31895C8.87856 8.21304 8.09375 8.06089 8.09375 7.66312C8.09375 7.37512 8.09223 6.83958 9.9349 6.83828C11.1602 6.83828 11.7839 7.22888 11.7839 7.9986H13.1172C13.1172 6.81431 12.2789 5.5468 9.9349 5.5468Z" fill="white"/>
</svg>
