<svg width="17" height="17" viewBox="0 0 17 17" fill="none" xmlns="http://www.w3.org/2000/svg">
<path d="M8.75214 11.2449C8.69764 13.1349 8.76583 15.0381 8.95646 15.5006C9.1472 15.9632 9.55541 16.8628 10.9591 16.5711C12.1319 16.3272 12.5586 15.8552 12.7437 14.8134C12.8801 14.0468 13.143 11.9181 13.1767 11.4819" stroke="white" stroke-width="0.6" stroke-linecap="round" stroke-linejoin="round"/>
<path d="M7.06965 1.77025C7.06965 1.77025 0.714546 -0.749536 1.00999 4.98064C1.07283 6.1997 2.81118 14.2048 4.88445 11.7869C5.64209 10.9026 6.32729 10.2091 6.32729 10.2091" stroke="white" stroke-width="0.6" stroke-linecap="round" stroke-linejoin="round"/>
<path d="M10.5023 1.31034C10.2823 1.37725 14.0374 -0.0213491 16.1715 2.62402C16.9253 3.55856 16.0518 7.37683 13.9621 10.385" stroke="white" stroke-width="0.6" stroke-linecap="round" stroke-linejoin="round"/>
<path d="M13.9621 10.385C13.9621 10.385 14.0983 11.0352 16.0775 10.6389C16.9446 10.4652 16.4228 11.1265 15.5433 11.5227C14.8215 11.8477 13.2032 11.931 13.1768 11.4819C13.1088 10.3233 14.0285 10.6753 13.9621 10.385C13.9021 10.1235 13.4908 9.86689 13.2187 9.22698C12.9812 8.66845 9.9611 4.38524 14.0563 5.02137C14.2063 4.99125 12.9882 1.24252 9.1557 1.18157C5.32405 1.12061 5.44976 5.75281 5.44976 5.75281" stroke="white" stroke-width="0.6" stroke-linecap="round" stroke-linejoin="bevel"/>
<path d="M7.67951 10.7812C7.14532 11.3601 7.30243 11.4618 6.23463 11.675C5.15425 11.8911 5.78901 12.2756 6.20327 12.376C6.70563 12.498 7.86786 12.6706 8.65315 11.6039C8.89229 11.2791 8.65174 10.7609 8.32324 10.6288C8.16452 10.565 7.95229 10.4851 7.67951 10.7812V10.7812Z" stroke="white" stroke-width="0.6" stroke-linecap="round" stroke-linejoin="round"/>
<path d="M7.64453 10.7711C7.5907 10.4307 7.75981 10.0257 7.94103 9.55185C8.21338 8.84091 8.84177 8.12985 8.33909 5.87465C7.9644 4.19409 5.4513 5.5249 5.44972 5.75277C5.44819 5.98057 5.56339 6.90778 5.40774 7.98752C5.20464 9.39646 6.33188 10.5881 7.62993 10.4662" stroke="white" stroke-width="0.6" stroke-linecap="round" stroke-linejoin="round"/>
<path d="M7.04656 5.71866C7.03523 5.79649 7.19344 6.00417 7.39973 6.03192C7.60566 6.05979 7.78193 5.89749 7.79311 5.81974C7.80428 5.74191 7.64627 5.65618 7.4399 5.62832C7.23385 5.60041 7.0575 5.64103 7.0466 5.71866H7.04656Z" fill="white" stroke="white" stroke-width="0.6"/>
<path d="M13.3192 5.55996C13.3303 5.63778 13.1723 5.84546 12.966 5.87321C12.7599 5.90108 12.5836 5.73878 12.5723 5.66103C12.5614 5.5832 12.7195 5.49747 12.9256 5.46961C13.1318 5.44174 13.308 5.48232 13.3192 5.55999V5.55996Z" fill="white" stroke="white" stroke-width="0.6"/>
<path d="M14.0563 5.02136C14.0903 5.63184 13.9208 6.04766 13.8994 6.69753C13.8678 7.64215 14.3636 8.72333 13.6165 9.80585" stroke="white" stroke-width="0.6" stroke-linecap="round" stroke-linejoin="round"/>
</svg>
