<svg width="18" height="16" viewBox="0 0 18 16" fill="none" xmlns="http://www.w3.org/2000/svg">
<g clip-path="url(#clip0_95_4)">
<path d="M9 9.60287C9.88606 9.60287 10.6043 8.88524 10.6043 8.00001C10.6043 7.11478 9.88606 6.39716 9 6.39716C8.11394 6.39716 7.39565 7.11478 7.39565 8.00001C7.39565 8.88524 8.11394 9.60287 9 9.60287Z" fill="white"/>
<path d="M9 11.2839C13.7544 11.2839 17.6087 9.81361 17.6087 7.99996C17.6087 6.18632 13.7544 4.71606 9 4.71606C4.24555 4.71606 0.391304 6.18632 0.391304 7.99996C0.391304 9.81361 4.24555 11.2839 9 11.2839Z" stroke="white"/>
<path d="M6.15341 9.64192C8.53063 13.7556 11.7322 16.3552 13.3043 15.4484C14.8765 14.5416 14.2238 10.4717 11.8466 6.35802C9.46936 2.24438 6.26778 -0.355267 4.69565 0.551556C3.12352 1.45838 3.77618 5.52827 6.15341 9.64192Z" stroke="white"/>
<path d="M6.15342 6.358C3.77619 10.4716 3.12353 14.5415 4.69566 15.4484C6.26778 16.3552 9.46937 13.7555 11.8466 9.64189C14.2238 5.52825 14.8765 1.45836 13.3044 0.551532C11.7322 -0.355291 8.53064 2.24435 6.15342 6.358Z" stroke="white"/>
</g>
<defs>
<clipPath id="clip0_95_4">
<rect width="18" height="16" fill="white"/>
</clipPath>
</defs>
</svg>
