<svg width="18" height="8" viewBox="0 0 18 8" fill="none" xmlns="http://www.w3.org/2000/svg">
<path d="M12.1605 0.0715332L12.1042 0.364783C12.0173 0.920533 12.0487 1.07953 12.2872 1.28578L12.5175 1.47628L12.279 2.53978C12.1365 3.17428 11.9618 3.70603 11.8507 3.88078C11.7555 4.03153 11.6445 4.25353 11.6205 4.37278C11.5808 4.51528 11.4458 4.65853 11.2395 4.78528C11.0573 4.88878 10.6995 5.16628 10.446 5.38903C10.2435 5.57128 10.104 5.68303 10.0282 5.73103L9.78075 5.92678C9.70125 6.05428 9.65625 6.15703 9.639 6.23503C9.62175 6.31528 9.6315 6.36853 9.657 6.40753C9.68175 6.44503 9.7245 6.47128 9.783 6.48778C9.85225 6.50401 9.92353 6.50983 9.9945 6.50503C10.155 6.49406 10.314 6.4659 10.4685 6.42103C10.521 6.40678 10.5623 6.39328 10.5982 6.38128C10.6537 6.31303 10.782 6.18403 11.0092 5.95978C11.6123 5.36503 11.8425 5.03953 11.6047 5.12728C11.517 5.15878 11.5567 5.07928 11.7075 4.92028C12.0255 4.61053 12.2078 4.14253 12.5887 2.67478C12.8903 1.51603 12.8903 1.49953 13.1122 1.49953C13.2165 1.49953 13.5112 1.51753 13.5112 1.51753V0.0715332H12.8348H12.1605ZM15.0397 2.44528C14.9917 2.44528 14.9122 2.51728 14.865 2.59678C14.778 2.73928 14.8807 2.82628 16.1903 3.64378C16.968 4.13653 17.595 4.55653 17.5793 4.58878C17.5635 4.61203 16.9282 5.02528 16.167 5.50153C14.7855 6.35803 14.778 6.36628 14.9047 6.54103C15.0637 6.74728 14.9047 6.81853 16.698 5.69953L18 4.86628V4.23928L16.5472 3.34228C15.762 2.85028 15.0795 2.45353 15.0397 2.44528ZM2.976 2.53303C2.93625 2.53303 2.25375 2.93803 1.4685 3.42178L0 4.31878V4.94578L1.46025 5.85853C2.27025 6.35803 2.95275 6.77128 2.98425 6.77128C3.01575 6.77128 3.0795 6.69928 3.14325 6.61228C3.2385 6.46153 3.15825 6.39778 1.81725 5.54878C0.54 4.74703 0.405 4.63603 0.5325 4.54903C0.612 4.49353 1.215 4.12003 1.866 3.71578C3.35025 2.80303 3.27075 2.86603 3.1515 2.67553C3.10425 2.59678 3.024 2.52553 2.97675 2.53303H2.976ZM9.489 2.55028C9.27 2.54878 8.799 2.88253 7.389 4.03378C7.32825 4.17853 7.323 4.27828 7.35075 4.34278C7.36875 4.38703 7.40175 4.41778 7.4475 4.44028C7.4925 4.46278 7.551 4.47628 7.6155 4.48153C7.74375 4.49278 7.89525 4.47253 8.0175 4.44853L8.1 4.42978C8.12824 4.39191 8.16532 4.36153 8.208 4.34128C8.295 4.29328 8.66025 3.96028 9.0255 3.60328C9.66825 2.95228 9.819 2.65828 9.55725 2.56303C9.53578 2.55449 9.51286 2.55016 9.48975 2.55028H9.489ZM11.136 3.00253C10.9432 3.00778 10.596 3.23128 10.0013 3.70603C9.70275 3.94828 9.51375 4.07878 9.4125 4.10578L9.0195 4.41628C8.87175 4.68628 8.85 4.85353 8.889 4.94578C8.89876 4.96854 8.91293 4.98914 8.9307 5.00639C8.94846 5.02364 8.96947 5.0372 8.9925 5.04628C9.0498 5.06891 9.1109 5.08037 9.1725 5.08003C9.31971 5.07846 9.46603 5.05702 9.6075 5.01628C9.68123 4.9965 9.75405 4.97348 9.82575 4.94728L9.8475 4.93828L9.88725 4.91728C9.96225 4.82053 10.1347 4.63828 10.3507 4.42828C11.0332 3.76978 11.382 3.30178 11.3108 3.12703C11.2785 3.04228 11.223 2.99953 11.136 3.00253ZM9.318 3.81253C9.2625 3.81853 9.138 3.91453 8.91375 4.11103C8.58975 4.39753 8.2365 4.56253 8.11425 4.48903C8.08584 4.49545 8.05734 4.50145 8.02875 4.50703C7.90425 4.53178 7.749 4.55203 7.61025 4.54078C7.54488 4.53682 7.4808 4.5208 7.42125 4.49353C7.36508 4.46785 7.32026 4.4225 7.29525 4.36603C7.2675 4.29853 7.2675 4.21453 7.299 4.10728L6.8115 4.50778L5.70825 5.42053V6.90028L9.32325 4.05253C9.32255 4.02135 9.32659 3.99025 9.33525 3.96028C9.363 3.85978 9.3615 3.80878 9.318 3.81328V3.81253ZM10.8735 4.29178C10.8188 4.29178 10.7273 4.36903 10.581 4.52428C10.3822 4.73653 10.0695 4.94203 9.90375 4.98403L9.87825 4.99753C9.85104 5.00877 9.82353 5.01927 9.79575 5.02903C9.75075 5.04403 9.69225 5.06203 9.62475 5.08003C9.48975 5.11678 9.32175 5.15053 9.17175 5.14678C9.10103 5.14669 9.031 5.13294 8.9655 5.10628C8.90376 5.08084 8.8543 5.03245 8.8275 4.97128C8.784 4.86703 8.80125 4.72078 8.8965 4.51303L5.7075 7.02478V7.92853H7.1085L10.08 5.59453C10.1572 5.50903 10.2735 5.39203 10.4303 5.24578C10.8502 4.85653 10.9455 4.72228 10.9455 4.52353C10.9455 4.36903 10.9283 4.29103 10.8735 4.29103V4.29178ZM11.5807 5.75428L11.3265 6.00778C11.184 6.14278 10.9297 6.30928 10.7557 6.38053L10.7213 6.39553L10.719 6.39928L10.7115 6.40678C10.7048 6.41203 10.7017 6.41278 10.6965 6.41503C10.627 6.44132 10.5565 6.4646 10.485 6.48478C10.3261 6.53104 10.1626 6.55996 9.9975 6.57103C9.91942 6.57604 9.84104 6.56921 9.765 6.55078C9.69901 6.53626 9.64076 6.49778 9.6015 6.44278C9.5655 6.38728 9.555 6.31303 9.57525 6.22153C9.59136 6.15639 9.61528 6.09343 9.6465 6.03403L7.24875 7.92853H10.4377L10.8188 7.49203C11.3422 6.88153 11.5807 6.44503 11.5807 6.07153V5.75428Z" fill="white"/>
</svg>
