<svg width="17" height="11" viewBox="0 0 18 11" fill="none" xmlns="http://www.w3.org/2000/svg">
<path fill-rule="evenodd" clip-rule="evenodd" d="M9.00018 0C6.59996 0 5.10023 1.2223 4.49991 3.66691C5.40004 2.4446 6.45006 1.98633 7.64999 2.29173C8.33461 2.46593 8.82417 2.97191 9.36559 3.5321C10.2481 4.44431 11.2695 5.5 13.5001 5.5C15.8999 5.5 17.4 4.2777 18 1.83345C17.1002 3.05576 16.0502 3.51403 14.8503 3.20827C14.1653 3.03407 13.6757 2.52809 13.1343 1.96826C12.2518 1.05533 11.2307 0 9.00018 0ZM4.49991 5.5C2.10005 5.5 0.599965 6.7223 0 9.16691C0.900123 7.9446 1.95015 7.48633 3.14973 7.79173C3.8347 7.96593 4.32426 8.47191 4.86567 9.0321C5.74816 9.94431 6.76927 11 9.00018 11C11.4 11 12.9001 9.77806 13.5001 7.33345C12.6 8.55576 11.5499 9.01403 10.35 8.70863C9.66539 8.53407 9.17583 8.02809 8.63441 7.46826C7.75192 6.55605 6.73047 5.5 4.49991 5.5V5.5Z" fill="white"/>
</svg>
