<svg width="33" height="25" viewBox="0 0 33 25" fill="none" xmlns="http://www.w3.org/2000/svg">
<path d="M32.4927 2.95603C31.3254 3.46121 30.0697 3.79828 28.7453 3.95776C30.0918 3.17672 31.1277 1.93103 31.6139 0.459483C30.3539 1.18103 28.9579 1.71121 27.4729 1.99052C26.287 0.762069 24.5955 0 22.7213 0C19.1212 0 16.2032 2.82586 16.2032 6.31034C16.2032 6.80345 16.2623 7.28362 16.3735 7.75C10.9575 7.48448 6.15386 4.96897 2.94025 1.15172C2.37553 2.08448 2.05788 3.17672 2.05788 4.32931C2.05788 6.51983 3.20585 8.44828 4.95648 9.58448C3.88792 9.55259 2.88201 9.26207 2.0014 8.79655C2.0014 8.81552 2.0014 8.84397 2.0014 8.87069C2.0014 11.9319 4.24881 14.481 7.22771 15.0612C6.68328 15.2069 6.10798 15.2879 5.51502 15.2879C5.09413 15.2879 4.68382 15.2414 4.28676 15.1716C5.11619 17.6733 7.52242 19.5017 10.3734 19.556C8.14273 21.2457 5.33325 22.2578 2.27847 22.2578C1.75081 22.2578 1.23462 22.2284 0.724609 22.1681C3.61086 23.9534 7.038 25 10.7166 25C22.7037 25 29.2615 15.3828 29.2615 7.03966C29.2615 6.76638 29.2527 6.49397 29.2394 6.225C30.5189 5.34224 31.6218 4.22845 32.4927 2.95603Z" fill="#5F5E62"/>
</svg>
