<svg width="16" height="16" viewBox="0 0 16 16" fill="none" xmlns="http://www.w3.org/2000/svg">
<path d="M15.619 0H0.380952C0.170286 0 0 0.170667 0 0.380952V15.619C0 15.8293 0.170286 16 0.380952 16H15.619C15.8297 16 16 15.8293 16 15.619V0.380952C16 0.170667 15.8297 0 15.619 0ZM9.52381 8.55048H7.61905V14.4762H6.09524V8.55048H4.19048V7.2381H9.52381V8.55048ZM9.95086 14.1379V12.5539C9.95086 12.5539 10.816 13.2061 11.8541 13.2061C12.8922 13.2061 12.8522 12.5272 12.8522 12.4343C12.8522 11.4491 9.91086 11.4491 9.91086 9.26667C9.91086 6.29867 14.1966 7.46971 14.1966 7.46971L14.1432 8.88076C14.1432 8.88076 13.4244 8.40152 12.6126 8.40152C11.8008 8.40152 11.5078 8.78743 11.5078 9.2C11.5078 10.2648 14.4758 10.1585 14.4758 12.3013C14.4762 15.6019 9.95086 14.1379 9.95086 14.1379Z" fill="white"/>
</svg>
