<svg width="16" height="16" viewBox="0 0 16 16" fill="none" xmlns="http://www.w3.org/2000/svg">
<path d="M14.9389 8.07546L15.9644 6.33828C16.0056 6.25163 16.0113 6.1522 15.9801 6.06272L13.9488 0.24466C13.8863 0.067107 13.7003 -0.0337431 13.5199 0.0102901L7.54978 1.4648C7.43615 1.49321 7.3424 1.57418 7.29837 1.68355L6.66343 3.273H4.72738C4.62653 3.273 4.52852 3.31562 4.46034 3.38948L0.0967634 8.11665C-0.038178 8.26295 -0.0310755 8.49022 0.112388 8.62658L4.68903 12.9901C4.75579 13.0555 4.8467 13.091 4.93902 13.091H7.02564L7.662 14.6804C7.70887 14.7983 7.81398 14.8821 7.93756 14.9034L14.2869 15.9943C14.3068 15.9986 14.3281 16 14.348 16C14.517 16 14.6662 15.8835 14.7031 15.7145L15.9914 9.81263C16.0113 9.72173 15.9957 9.62656 15.946 9.54559L14.9389 8.07546ZM6.66343 3.273L11.7884 2.3341L9.09095 7.63654H2.9703L6.66343 3.273ZM7.02706 13.091L2.9703 9.09106H9.09095L12.2727 13.8793L7.02706 13.091ZM13.5951 13.054L10.5455 8.3638L13.2116 3.06136L14.9389 8.07688L13.5951 13.054Z" fill="white"/>
</svg>
